<svg width="256" height="256" viewBox="0 0 256 256" fill="none" xmlns="http://www.w3.org/2000/svg">
<!-- 
    原始 viewBox 24x24，放大比例 = 256 / 24 = 10.666666666666666
    所有坐标和半径都乘以这个比例
-->
<path d="M21.3333 128C21.3333 189.524 68.4762 236.667 128 236.667C187.524 236.667 234.667 189.524 234.667 128C234.667 66.4762 187.524 19.3333 128 19.3333C68.4762 19.3333 21.3333 66.4762 21.3333 128ZM42.6667 128C42.6667 81.3333 81.3333 42.6667 128 42.6667C174.667 42.6667 213.333 81.3333 213.333 128C213.333 174.667 174.667 213.333 128 213.333C81.3333 213.333 42.6667 174.667 42.6667 128Z" fill="url(#paint0_linear_101_29_256)"/>
<path d="M64 128C64 110.381 78.381 96 96 96C113.619 96 128 110.381 128 128C128 145.619 113.619 160 96 160C78.381 160 64 145.619 64 128Z" fill="url(#paint1_linear_101_29_256)"/>
<path d="M128 128C128 110.381 142.381 96 160 96C177.619 96 192 110.381 192 128C192 145.619 177.619 160 160 160C142.381 160 128 145.619 128 128Z" fill="url(#paint2_linear_101_29_256)"/>
<defs>
<linearGradient id="paint0_linear_101_29_256" x1="128" y1="21.3333" x2="128" y2="236.667" gradientUnits="userSpaceOnUse">
<stop stop-color="#9C27B0"/>
<stop offset="1" stop-color="#673AB7"/>
</linearGradient>
<linearGradient id="paint1_linear_101_29_256" x1="96" y1="96" x2="96" y2="160" gradientUnits="userSpaceOnUse">
<stop stop-color="#00BCD4"/>
<stop offset="1" stop-color="#009688"/>
</linearGradient>
<linearGradient id="paint2_linear_101_29_256" x1="160" y1="96" x2="160" y2="160" gradientUnits="userSpaceOnUse">
<stop stop-color="#FFEB3B"/>
<stop offset="1" stop-color="#FFC107"/>
</linearGradient>
</defs>
</svg>